<svg xmlns="http://www.w3.org/2000/svg" width="25.535" height="25.773" viewBox="0 0 25.535 25.773"><path d="M17.835,17.288l1.419-1.611a.353.353,0,0,1,.607.287v7.318A2.286,2.286,0,0,1,17.733,25.7H2.128A2.286,2.286,0,0,1,0,23.283V5.566A2.286,2.286,0,0,1,2.128,3.15H14.253a.414.414,0,0,1,.253.69L13.087,5.45a.331.331,0,0,1-.253.116H2.128V23.283H17.733V17.57A.425.425,0,0,1,17.835,17.288ZM24.778,7.131,13.136,20.348l-4.008.5a1.965,1.965,0,0,1-2.022-2.3l.443-4.55L19.192.789a2.376,2.376,0,0,1,3.666,0l1.915,2.174a3.237,3.237,0,0,1,0,4.167ZM20.4,8.686,17.822,5.762,9.585,15.119l-.324,3.287,2.895-.367ZM23.27,4.675,21.355,2.5a.425.425,0,0,0-.656,0l-1.37,1.555L21.9,6.98l1.37-1.555A.589.589,0,0,0,23.27,4.675Z" transform="translate(0 0.075)"/></svg>