<svg xmlns="http://www.w3.org/2000/svg" xmlns:xlink="http://www.w3.org/1999/xlink" width="181.825" height="75" viewBox="0 0 181.825 75"><defs><style>.a{fill:none;}.b{fill:#770303;}.c{fill:#21272d;}.d{fill:#2e3640;font-size:21px;font-family:Oswald-Bold, Oswald;font-weight:700;}.e{clip-path:url(#a);}.f{fill:#413e42;}</style><clipPath id="a"><rect class="a" width="107.023" height="24.654"/></clipPath></defs><g transform="translate(-101 -270)"><g transform="translate(101 270)"><path class="b" d="M351.875,131.415l-6.289-6.289-16.715,16.79-16.9-16.765-6.289,6.289,16.9,16.765-16.828,16.74,6.289,6.289,16.828-16.74,16.79,16.715,6.289-6.289L335.16,148.2Z" transform="translate(-291.314 -110.68)"/><path class="c" d="M468.361,221.314h-.1l-.09.007a5.978,5.978,0,0,1-1.174.227,7.461,7.461,0,0,1-2.617-.177,16.8,16.8,0,0,0-3.417-.318,18.971,18.971,0,0,0-2.353.14,16.541,16.541,0,0,1-2.864.237V219.5h-.47v1.562c-17.058,0-19.172,1.363-19.172,1.363s2.115,1.363,19.172,1.363v1.539h.47v-1.933a16.573,16.573,0,0,1,2.864.237,18.927,18.927,0,0,0,2.353.14,16.8,16.8,0,0,0,3.417-.318,7.458,7.458,0,0,1,2.617-.177,5.959,5.959,0,0,1,1.174.227l.09.007h.1a.543.543,0,0,0,.543-.543v-1.108A.543.543,0,0,0,468.361,221.314Z" transform="translate(-393.904 -184.911)"/><g transform="translate(8.605 8.612)"><path class="c" d="M280.4,124.94a27.247,27.247,0,0,1,25.347-25.446l-.115-1.7a28.955,28.955,0,0,0-26.936,27.04Z" transform="translate(-278.691 -97.791)"/></g><path class="c" d="M238.916,221.314h.1l.089.007a5.981,5.981,0,0,0,1.174.227,7.462,7.462,0,0,0,2.617-.177,16.8,16.8,0,0,1,3.417-.318,18.972,18.972,0,0,1,2.353.14,16.541,16.541,0,0,0,2.864.237V219.5H252v1.562c17.058,0,19.172,1.363,19.172,1.363s-2.115,1.363-19.172,1.363v1.539h-.47v-1.933a16.573,16.573,0,0,0-2.864.237,18.928,18.928,0,0,1-2.353.14,16.8,16.8,0,0,1-3.417-.318,7.459,7.459,0,0,0-2.617-.177,5.962,5.962,0,0,0-1.174.227l-.089.007h-.1a.543.543,0,0,1-.543-.543v-1.108A.543.543,0,0,1,238.916,221.314Z" transform="translate(-238.373 -184.911)"/><g transform="translate(39.246 39.344)"><path class="c" d="M422.266,267.137a27.247,27.247,0,0,0,25.446-25.347l1.7.115a28.955,28.955,0,0,1-27.041,26.936Z" transform="translate(-422.266 -241.79)"/></g><path class="c" d="M404.478,287.425v-.1l-.007-.089a5.972,5.972,0,0,1-.227-1.174,7.461,7.461,0,0,1,.177-2.617,16.8,16.8,0,0,0,.318-3.417,18.971,18.971,0,0,0-.14-2.353,16.536,16.536,0,0,1-.237-2.863h1.932v-.47h-1.562c0-17.058-1.363-19.172-1.363-19.172s-1.363,2.115-1.363,19.172h-1.539v.47H402.4a16.54,16.54,0,0,1-.237,2.863,18.924,18.924,0,0,0-.14,2.353,16.8,16.8,0,0,0,.318,3.417,7.459,7.459,0,0,1,.177,2.617,5.962,5.962,0,0,1-.227,1.174l-.007.089v.1a.543.543,0,0,0,.543.543h1.108A.543.543,0,0,0,404.478,287.425Z" transform="translate(-365.874 -212.968)"/><path class="c" d="M404.478,57.981v.1l-.007.089a5.968,5.968,0,0,0-.227,1.174,7.46,7.46,0,0,0,.177,2.617,16.8,16.8,0,0,1,.318,3.417,18.968,18.968,0,0,1-.14,2.353,16.538,16.538,0,0,0-.237,2.864h1.932v.47h-1.562c0,17.058-1.363,19.172-1.363,19.172s-1.363-2.115-1.363-19.172h-1.539V70.6H402.4a16.541,16.541,0,0,0-.237-2.864,18.921,18.921,0,0,1-.14-2.353,16.8,16.8,0,0,1,.318-3.417,7.459,7.459,0,0,0,.177-2.617,5.958,5.958,0,0,0-.227-1.174l-.007-.089v-.1a.543.543,0,0,1,.543-.543h1.108A.543.543,0,0,1,404.478,57.981Z" transform="translate(-365.874 -57.438)"/><g transform="translate(8.556 39.401)"><path class="c" d="M305.61,267.4a27.247,27.247,0,0,1-25.446-25.347l-1.7.115a28.955,28.955,0,0,0,27.04,26.936Z" transform="translate(-278.461 -242.055)"/></g><g transform="translate(39.344 8.612)"><path class="c" d="M448.073,124.94a27.247,27.247,0,0,0-25.347-25.446l.115-1.7a28.955,28.955,0,0,1,26.936,27.04Z" transform="translate(-422.726 -97.791)"/></g></g><text class="d" transform="translate(191 329)"><tspan x="0" y="0">PURSUIT</tspan></text><g transform="translate(229.314 291.826)"><g class="e" transform="translate(-53.511 -12.327)"><path class="f" d="M9.216.2h3.907c.294,0,.428.054.4.375a11.481,11.481,0,0,0,0,1.311c.027.294-.08.4-.4.4H5.843A3.569,3.569,0,0,0,2.391,4.562,3.909,3.909,0,0,0,4.559,9.674a4.282,4.282,0,0,0,1.311.214h5.138c.294,0,.4-.08.4-.4s-.027-1.178,0-1.766-.08-.4-.4-.4H6.218c-.348,0-.482-.08-.428-.428a3.426,3.426,0,0,0,0-.428.99.99,0,0,1,.963-1.044h6.289c.294,0,.428.054.428.4q-.027,2.864,0,5.727c0,.294-.08.4-.4.4H5.951A5.826,5.826,0,0,1,.036,5.392,5.572,5.572,0,0,1,5.87.2H9.216" transform="translate(-0.009 -0.146)"/><path class="f" d="M178.044,8.543l3.533,3.506h-2.89a.616.616,0,0,1-.348-.214L175.5,9a.963.963,0,0,0-.589-.241H171.22c-.294,0-.4-.054-.4-.375,0-1.178.508-1.659,1.766-1.686h3.8a3.4,3.4,0,0,0,1.74-.428,1.98,1.98,0,0,0,.963-2.168,1.927,1.927,0,0,0-1.579-1.633,4.817,4.817,0,0,0-.963-.107h-6.958v9.206c0,.348-.08.508-.455.482a7.547,7.547,0,0,0-1.2,0c-.348.027-.428-.08-.428-.428.027-2.649,0-5.3,0-7.948V.648c0-.214.027-.348.321-.348,2.944.027,5.861,0,8.8.027a5.165,5.165,0,0,1,3.479,1.311,4.04,4.04,0,0,1-.99,6.4c-.348.187-.7.294-1.124.482" transform="translate(-122.673 -0.22)"/><path class="f" d="M225.987,6.043V.556c0-.214,0-.375.294-.375,2.248,0,4.5-.027,6.717.027,3.265.054,6.182,2.623,5.46,6.958a5.646,5.646,0,0,1-5.781,4.764h-6.343c-.294,0-.375-.107-.348-.375V6.016m2.061-3.747a1.044,1.044,0,0,0-.027.161V9.575c0,.294.161.294.375.294h4.335a3.854,3.854,0,0,0,1.98-.535A3.778,3.778,0,0,0,236.344,5a3.666,3.666,0,0,0-3.559-2.757h-4.737" transform="translate(-165.504 -0.128)"/><path class="f" d="M365.808,8.217c0-.161.027-.268.027-.375V.59c0-.375.107-.455.455-.428h1.231c.321-.027.4.107.4.4V10.786a2.57,2.57,0,0,1-.027.375c-.134.856-.669,1.124-1.418.669a3.452,3.452,0,0,1-.642-.535l-7.306-7.279-.268-.214v7.681c0,.321-.107.428-.428.4h-1.311c-.241,0-.321-.08-.321-.321V1.232c0-.428.054-.8.455-1.017A1.044,1.044,0,0,1,357.833.4a11.238,11.238,0,0,1,.99.883l6.8,6.8.187.134" transform="translate(-260.872 -0.082)"/><path class="f" d="M121.417,11.766a14.746,14.746,0,0,0-1.74.027,1.158,1.158,0,0,1-1.338-.776c-.294-.616-.883-1.5-1.338-2.248a.535.535,0,0,0-.535-.268h-5.219a8.4,8.4,0,0,0,.616-1.044,1.548,1.548,0,0,1,1.82-1.044,14.906,14.906,0,0,0,1.927.027L113.575,3.1l-1.285,2.114-3.827,6.236a.562.562,0,0,1-.562.321h-2.3l.776-1.311c1.847-3.051,3.666-6.129,5.54-9.18A4.336,4.336,0,0,1,112.933.2,1.044,1.044,0,0,1,114.3.2a3.773,3.773,0,0,1,.937.99c2.061,3.452,4.068,6.9,6.1,10.357l.08.187" transform="translate(-77.339 0.036)"/><path class="f" d="M298.867,8.542c.4-.669.776-1.285,1.151-1.847a.589.589,0,0,1,.428-.161h2.783l-2.007-3.319-.161.187-5,8.136a.508.508,0,0,1-.508.294H293.3a.885.885,0,0,1,.054-.187L299.509,1.37A2.971,2.971,0,0,1,300.633.219a1.1,1.1,0,0,1,1.231.027,3.532,3.532,0,0,1,.937.937c2.087,3.479,4.121,6.985,6.182,10.491a.909.909,0,0,1,.054.187h-2.3a.482.482,0,0,1-.482-.294L304.647,8.89a.589.589,0,0,0-.589-.321h-5.192" transform="translate(-214.806 -0.031)"/><path class="f" d="M70.886,3.873c-.054,1.285-.027,2.6-.161,3.881a4.016,4.016,0,0,1-3.238,3.773,12.311,12.311,0,0,1-6.5-.054,4.168,4.168,0,0,1-3.1-3.747,10.6,10.6,0,0,1-.08-1.392c0-1.927,0-3.881,0-5.807,0-.321.107-.428.428-.4h1.231c.321-.027.455.08.428.428q-.027,3.024,0,6.075a4.683,4.683,0,0,0,.187,1.285A2.275,2.275,0,0,0,61.84,9.574a11.32,11.32,0,0,0,4.657.08c1.552-.321,2.275-1.311,2.275-3.051V.528c0-.348.107-.428.428-.428a11.99,11.99,0,0,0,1.311,0c.268,0,.348.08.348.348V3.82h.054" transform="translate(-42.33 -0.073)"/><path class="f" d="M95.7,61.527a1.229,1.229,0,0,1,.027.268v4.576c0,.321-.08.428-.4.428H90.263a4.282,4.282,0,0,1-4.336-3.533,4.562,4.562,0,0,1,1.178-4.416,3.64,3.64,0,0,1,2.462-1.1c1.766-.054,3.533-.027,5.3-.054.214,0,.268.08.268.268.08,1.258.08,1.258-1.178,1.258H90.21a2.9,2.9,0,0,0-2.864,3.345,2.864,2.864,0,0,0,2.061,2.6,3.078,3.078,0,0,0,.883.134H93.8c.321,0,.428-.107.4-.428s-.027-1.1,0-1.659-.107-.428-.428-.428H90.5c-.375,0-.455-.107-.455-.455.027-.937-.107-.8.83-.8H95.7Z" transform="translate(-62.832 -42.258)"/><path class="f" d="M141.648,64.169l2.757,2.7h-2.061a.616.616,0,0,1-.348-.214c-.642-.7-1.258-1.392-1.9-2.061a.937.937,0,0,0-.589-.268h-3.051a7.063,7.063,0,0,1,.027-1.07c.054-.348.187-.214.321-.214h3.4a1.88,1.88,0,0,0,1.686-2.757,1.5,1.5,0,0,0-1.418-.937h-4.924c-.375,0-.348.214-.348.455V66.5c0,.321-.054.455-.4.428-1.1-.027-1.1,0-1.1-1.124V58.228c0-.348.08-.428.428-.428,2.168.027,4.335,0,6.5.027a2.889,2.889,0,0,1,2.917,2.837,3.207,3.207,0,0,1-1.1,3,9.5,9.5,0,0,1-.8.508" transform="translate(-97.919 -42.331)"/><path class="f" d="M184.89,57.4a16.445,16.445,0,0,1,2.569.321,3.788,3.788,0,0,1,2.837,3.024,4.924,4.924,0,0,1-1.2,4.576,3.773,3.773,0,0,1-2.6,1.2,21.035,21.035,0,0,1-3.452-.027,4.019,4.019,0,0,1-3.506-3.024,4.5,4.5,0,0,1,.83-4.576,3.961,3.961,0,0,1,2.864-1.365c.535-.027,1.071,0,1.606,0v-.107m-.161,1.552a9.064,9.064,0,0,0-1.98.241,2.9,2.9,0,0,0-1.873,3.319,2.943,2.943,0,0,0,2.89,2.569,19.323,19.323,0,0,0,2.195,0,3.747,3.747,0,0,0,1.472-.375,2.935,2.935,0,0,0,1.472-3.024,2.73,2.73,0,0,0-2.141-2.516,16.057,16.057,0,0,0-2.034-.161" transform="translate(-131.285 -42.038)"/><path class="f" d="M277.727,66.772c0-.187-.027-.321-.027-.428V58.128c0-.375.107-.428.455-.428h6.155c2.275.027,3.372,1.686,3.078,3.8a2.918,2.918,0,0,1-3.078,2.7h-3.479c-.268,0-.4-.08-.375-.375s0-.7,0-1.07h.375c1.178,0,2.328,0,3.506-.054a1.581,1.581,0,0,0,1.606-1.873A1.659,1.659,0,0,0,284.2,59.2h-4.6c-.321,0-.4.134-.4.428,0,2.221,0,4.469.027,6.691,0,.375-.107.482-.482.455s-.642,0-.99,0" transform="translate(-203.381 -42.258)"/><path class="f" d="M230.216,57.8h1.418c.027.428.054.856.054,1.285.027,1.338,0,2.676.054,4.041a2.194,2.194,0,0,0,2.195,2.3,7.734,7.734,0,0,0,2.864-.107,1.968,1.968,0,0,0,1.686-2.007c.054-1.124.027-2.944.054-4.416V57.8h1.445c0,.107.027.214.027.321,0,1.686.027,3.345,0,5.031a3.577,3.577,0,0,1-1.1,2.81,3.747,3.747,0,0,1-1.927.856,9.822,9.822,0,0,1-4.336-.134,3.078,3.078,0,0,1-2.409-2.971c-.107-1.927-.027-3.854-.054-5.807l.054-.08" transform="translate(-168.582 -42.331)"/><path class="f" d="M282.461,6.048v5.486c0,.321-.08.428-.4.4h-1.151c-.508,0-.508,0-.508-.482V.562c0-.294.107-.375.375-.375h1.311c.294-.027.4.054.4.375-.027,1.82,0,3.666,0,5.486" transform="translate(-205.358 -0.133)"/></g></g></g></svg>