<svg xmlns="http://www.w3.org/2000/svg" width="51.729" height="60.509" viewBox="0 0 51.729 60.509"><defs><style>.a{fill:#152b4a;}</style></defs><path class="a" d="M618.357,649.484a14.457,14.457,0,1,0-20.132,0,25.775,25.775,0,0,0-15.8,23.83c0,.109,0,.215,0,.324l.01.513.361.366a35.825,35.825,0,0,0,50.981,0l.361-.366.01-.513c0-.109,0-.215,0-.324A25.776,25.776,0,0,0,618.357,649.484Zm-21.946-10.366a11.886,11.886,0,1,1,5.083,9.742A11.894,11.894,0,0,1,596.411,639.118Zm11.879,43.474a33,33,0,0,1-23.286-9.516,23.211,23.211,0,0,1,15.563-21.738c.081.052.164.1.247.15.054.032.107.066.161.1.119.07.239.137.36.2l.1.058q.235.127.474.245l.09.042c.129.063.259.124.389.183l.167.072c.106.046.212.092.319.135.064.026.129.05.193.075.1.039.2.077.3.114.069.025.138.048.208.072.1.034.195.067.292.1.072.023.144.045.216.067.1.029.194.058.291.085l.221.06q.146.038.292.074l.224.052q.147.033.295.062l.226.044c.1.019.2.035.3.052l.225.036c.1.015.2.028.307.041l.22.027c.107.012.215.021.322.03.07.006.139.013.209.019.119.009.238.014.358.02l.176.009q.268.01.537.01t.537-.01l.177-.009c.119-.006.239-.012.357-.02.07-.005.14-.012.21-.019.107-.009.215-.019.322-.03l.221-.027c.1-.013.2-.026.306-.041l.227-.036c.1-.016.2-.033.3-.051l.229-.045c.1-.02.194-.04.291-.062l.228-.053c.1-.023.191-.047.287-.072l.226-.061c.1-.027.19-.055.285-.084l.221-.068c.1-.031.191-.063.286-.1.071-.024.143-.049.214-.074.1-.036.195-.073.292-.111.067-.026.135-.051.2-.078.1-.042.207-.087.31-.131.059-.025.118-.049.176-.076.126-.056.25-.116.374-.176l.1-.049q.238-.118.473-.244l.105-.059c.12-.066.24-.133.359-.2.053-.031.1-.064.157-.1.083-.051.167-.1.25-.152a23.212,23.212,0,0,1,15.564,21.738A33,33,0,0,1,608.291,682.592Z" transform="translate(-582.427 -624.66)"/></svg>