<svg xmlns="http://www.w3.org/2000/svg" width="22.324" height="25.514" viewBox="0 0 22.324 25.514"><defs><style>.a{fill:#770303;}</style></defs><path class="a" d="M8.97,20.73h-1.2a.6.6,0,0,1-.6-.6V9.368a.6.6,0,0,1,.6-.6h1.2a.6.6,0,0,1,.6.6V20.132A.6.6,0,0,1,8.97,20.73ZM.8,3.987H4.9L6.6,1.161A2.392,2.392,0,0,1,8.65,0h5.024a2.392,2.392,0,0,1,2.051,1.161l1.7,2.825h4.107a.8.8,0,0,1,.8.8v.8a.8.8,0,0,1-.8.8h-.8V23.122a2.392,2.392,0,0,1-2.392,2.392H3.987a2.392,2.392,0,0,1-2.392-2.392V6.378H.8a.8.8,0,0,1-.8-.8v-.8A.8.8,0,0,1,.8,3.987Zm12.964-1.45a.3.3,0,0,0-.257-.145H8.82a.3.3,0,0,0-.257.145l-.87,1.45h6.938ZM3.987,23.122H18.338V6.378H3.987ZM14.551,20.73h-1.2a.6.6,0,0,1-.6-.6V9.368a.6.6,0,0,1,.6-.6h1.2a.6.6,0,0,1,.6.6V20.132A.6.6,0,0,1,14.551,20.73Z"/></svg>