<?xml version="1.0" standalone="no"?>
<!DOCTYPE svg PUBLIC "-//W3C//DTD SVG 20010904//EN"
 "http://www.w3.org/TR/2001/REC-SVG-20010904/DTD/svg10.dtd">
<svg version="1.0" xmlns="http://www.w3.org/2000/svg"
 width="700.000000pt" height="700.000000pt" viewBox="0 0 700.000000 700.000000"
 preserveAspectRatio="xMidYMid meet">
<metadata>
Created by potrace 1.14, written by Peter Selinger 2001-2017
</metadata>
<g transform="translate(0.000000,700.000000) scale(0.100000,-0.100000)"
fill="#000000" stroke="none">
<path d="M3475 5020 c3 -5 3 -10 -2 -10 -8 0 -31 -19 -95 -76 -16 -13 -28 -22
-28 -19 0 2 -14 -9 -30 -25 -17 -17 -35 -30 -41 -30 -6 0 -7 -4 -4 -10 3 -5 0
-10 -7 -10 -7 0 -32 -18 -55 -40 -24 -21 -43 -36 -43 -33 0 3 -11 -5 -24 -18
-23 -24 -66 -60 -136 -116 -19 -15 -39 -33 -43 -40 -4 -7 -13 -13 -19 -13 -6
0 -21 -11 -34 -25 -13 -14 -26 -25 -29 -25 -5 0 -44 -33 -90 -75 l-21 -20 0
-580 c0 -400 3 -582 10 -588 6 -4 68 -6 137 -6 69 1 130 0 135 -3 5 -3 18 -2
29 2 11 4 30 4 42 -1 13 -5 25 -4 28 2 4 5 11 7 16 3 13 -8 80 -11 84 -4 2 3
38 3 80 0 42 -3 78 -3 80 0 2 3 38 3 80 0 42 -3 79 -2 82 2 2 5 13 3 24 -2 10
-6 19 -7 19 -2 0 4 27 5 60 2 34 -3 60 -2 60 3 0 5 6 5 13 -1 7 -6 19 -7 26
-3 7 5 28 5 47 1 20 -5 34 -4 34 1 0 6 8 6 18 0 13 -7 23 -6 30 1 9 9 12 9 12
-2 0 -11 3 -11 12 -2 7 7 17 8 30 1 10 -5 18 -6 18 -2 0 4 34 6 76 3 42 -3 78
-2 81 2 2 5 13 3 24 -2 10 -6 19 -7 19 -2 0 5 10 8 23 8 l22 -1 2 310 c1 170
2 328 3 350 1 22 1 43 0 48 -1 8 -2 133 0 145 0 4 1 76 0 161 -1 108 -5 159
-14 172 -7 11 -16 16 -19 12 -4 -3 -7 1 -7 11 0 9 -4 15 -9 12 -5 -3 -11 1
-15 9 -3 8 -12 15 -21 15 -8 0 -15 8 -15 17 0 9 -3 14 -6 10 -6 -6 -34 14 -69
51 -12 12 -25 22 -29 22 -4 0 -13 6 -20 13 -8 7 -33 29 -56 48 -23 18 -48 40
-55 47 -8 6 -19 12 -26 12 -7 0 -10 3 -6 6 3 3 -15 22 -41 42 -26 19 -50 40
-54 46 -4 6 -8 8 -8 4 0 -3 -19 11 -42 33 -61 56 -77 69 -86 69 -4 0 -19 13
-32 30 -14 16 -29 29 -33 30 -4 0 -17 9 -29 20 -22 20 -74 29 -63 10z"/>
</g>
</svg>
